<svg xmlns="http://www.w3.org/2000/svg" width="1200" height="720" viewBox="0 0 1200 720" role="img" aria-labelledby="title desc">
  <title id="title">Portfolio Website Illustration</title>
  <desc id="desc">Editorial illustration representing a personal portfolio website with layered cards, profile elements, and project tiles.</desc>
  <defs>
    <linearGradient id="bg" x1="0" y1="0" x2="1" y2="1">
      <stop offset="0%" stop-color="#f8fbfd" />
      <stop offset="100%" stop-color="#e9f0f6" />
    </linearGradient>
    <linearGradient id="ink" x1="0" y1="0" x2="1" y2="1">
      <stop offset="0%" stop-color="#0f172a" />
      <stop offset="100%" stop-color="#16263a" />
    </linearGradient>
    <linearGradient id="aqua" x1="0" y1="0" x2="1" y2="0">
      <stop offset="0%" stop-color="#1bb7da" />
      <stop offset="100%" stop-color="#76ddd4" />
    </linearGradient>
    <linearGradient id="soft" x1="0" y1="0" x2="1" y2="1">
      <stop offset="0%" stop-color="#ffffff" />
      <stop offset="100%" stop-color="#f4f8fb" />
    </linearGradient>
  </defs>

  <rect width="1200" height="720" fill="url(#bg)" />
  <circle cx="140" cy="122" r="116" fill="#dfeaf3" opacity="0.78" />
  <circle cx="1086" cy="120" r="126" fill="#d8eef0" opacity="0.78" />
  <circle cx="1024" cy="646" r="152" fill="#dfe7f4" opacity="0.72" />

  <g transform="translate(120 84)">
    <rect x="0" y="22" width="506" height="420" rx="34" fill="#d7e2ec" opacity="0.52" />
    <rect x="18" y="0" width="506" height="420" rx="34" fill="url(#ink)" />

    <rect x="58" y="52" width="108" height="14" rx="7" fill="#22c1df" opacity="0.96" />
    <rect x="58" y="112" width="278" height="22" rx="11" fill="#f8fbff" opacity="0.96" />
    <rect x="58" y="150" width="222" height="16" rx="8" fill="#b5c4d5" opacity="0.8" />

    <rect x="58" y="204" width="112" height="34" rx="17" fill="#ffffff" opacity="0.1" stroke="#ffffff" stroke-opacity="0.22" />
    <rect x="182" y="204" width="98" height="34" rx="17" fill="#ffffff" opacity="0.1" stroke="#ffffff" stroke-opacity="0.22" />
    <rect x="292" y="204" width="124" height="34" rx="17" fill="#ffffff" opacity="0.1" stroke="#ffffff" stroke-opacity="0.22" />

    <rect x="58" y="272" width="124" height="44" rx="15" fill="url(#aqua)" />
    <rect x="196" y="272" width="108" height="44" rx="15" fill="#ffffff" opacity="0.08" stroke="#ffffff" stroke-opacity="0.18" />

    <circle cx="412" cy="126" r="76" fill="#18314d" opacity="0.7" />
    <circle cx="412" cy="126" r="52" fill="#e6f2f7" />
    <circle cx="412" cy="112" r="20" fill="#9db4c8" />
    <path d="M376 166c10-24 28-36 36-36s26 12 36 36" fill="#c9dae6" />

    <rect x="58" y="354" width="406" height="2" rx="1" fill="#26364a" />
  </g>

  <g transform="translate(654 120)">
    <rect x="0" y="44" width="344" height="212" rx="28" fill="#d5e0ea" opacity="0.58" />
    <rect x="18" y="0" width="344" height="212" rx="28" fill="url(#soft)" stroke="#dbe5ee" />

    <rect x="46" y="36" width="132" height="10" rx="5" fill="#c8d5e0" />
    <rect x="46" y="58" width="96" height="10" rx="5" fill="#d8e2ea" />

    <rect x="46" y="92" width="134" height="84" rx="18" fill="#edf3f8" />
    <rect x="58" y="104" width="110" height="60" rx="14" fill="url(#ink)" />

    <rect x="202" y="96" width="124" height="12" rx="6" fill="#b9c8d6" />
    <rect x="202" y="122" width="102" height="10" rx="5" fill="#d2dbe4" />
    <rect x="202" y="146" width="88" height="24" rx="12" fill="#1bb7da" opacity="0.14" />
  </g>

  <g transform="translate(610 386)">
    <rect x="0" y="0" width="438" height="168" rx="28" fill="#ffffff" stroke="#dbe5ee" />
    <rect x="34" y="34" width="116" height="100" rx="18" fill="#edf3f8" />
    <rect x="50" y="50" width="84" height="68" rx="14" fill="url(#aqua)" opacity="0.2" />

    <rect x="182" y="42" width="182" height="12" rx="6" fill="#c2cfdb" />
    <rect x="182" y="68" width="142" height="10" rx="5" fill="#d5dde6" />
    <rect x="182" y="92" width="166" height="10" rx="5" fill="#e0e7ee" />

    <rect x="182" y="122" width="70" height="22" rx="11" fill="#1bb7da" opacity="0.14" />
    <rect x="262" y="122" width="84" height="22" rx="11" fill="#1bb7da" opacity="0.14" />
  </g>

  <g transform="translate(190 518)">
    <rect x="0" y="0" width="168" height="56" rx="20" fill="#ffffff" stroke="#dbe5ee" />
    <rect x="26" y="22" width="68" height="12" rx="6" fill="#c5d2de" />
    <rect x="108" y="18" width="34" height="20" rx="10" fill="#1bb7da" opacity="0.16" />

    <rect x="192" y="0" width="168" height="56" rx="20" fill="#ffffff" stroke="#dbe5ee" />
    <rect x="218" y="22" width="68" height="12" rx="6" fill="#c5d2de" />
    <rect x="300" y="18" width="34" height="20" rx="10" fill="#1bb7da" opacity="0.16" />
  </g>
</svg>
