<svg xmlns="http://www.w3.org/2000/svg" width="1200" height="720" viewBox="0 0 1200 720" role="img" aria-labelledby="title desc">
  <title id="title">Portfolio Website Placeholder</title>
  <desc id="desc">Light filler image with soft gradients and decorative shapes.</desc>
  <defs>
    <linearGradient id="bg" x1="0" y1="0" x2="1" y2="1">
      <stop offset="0%" stop-color="#f7fafc" />
      <stop offset="100%" stop-color="#e7eef5" />
    </linearGradient>
    <linearGradient id="accent" x1="0" y1="0" x2="1" y2="0">
      <stop offset="0%" stop-color="#7fb3d5" />
      <stop offset="100%" stop-color="#9fd3c7" />
    </linearGradient>
    <filter id="softShadow" x="-20%" y="-20%" width="140%" height="140%">
      <feDropShadow dx="0" dy="10" stdDeviation="18" flood-color="#7a8a99" flood-opacity="0.2" />
    </filter>
  </defs>

  <rect width="1200" height="720" fill="url(#bg)" />

  <circle cx="140" cy="90" r="120" fill="#dce8f2" opacity="0.6" />
  <circle cx="1110" cy="80" r="150" fill="#e1f0ed" opacity="0.7" />
  <circle cx="1060" cy="660" r="180" fill="#d9e6f4" opacity="0.55" />

  <g filter="url(#softShadow)">
    <rect x="170" y="145" width="860" height="430" rx="26" fill="#ffffff" />
    <rect x="170" y="145" width="860" height="74" rx="26" fill="#f1f5f9" />
  </g>

  <circle cx="215" cy="182" r="8" fill="#c8d4df" />
  <circle cx="243" cy="182" r="8" fill="#c8d4df" />
  <circle cx="271" cy="182" r="8" fill="#c8d4df" />

  <rect x="332" y="166" width="220" height="30" rx="8" fill="#dde7f0" />

  <rect x="230" y="270" width="360" height="18" rx="9" fill="#d6e2ee" />
  <rect x="230" y="304" width="430" height="18" rx="9" fill="#e1e9f2" />
  <rect x="230" y="338" width="280" height="18" rx="9" fill="#e6edf4" />

  <rect x="230" y="396" width="168" height="42" rx="12" fill="url(#accent)" />

  <rect x="700" y="255" width="250" height="175" rx="14" fill="#eef4f8" />
  <rect x="724" y="282" width="196" height="14" rx="7" fill="#d8e4ef" />
  <rect x="724" y="312" width="148" height="14" rx="7" fill="#dee8f1" />
  <rect x="724" y="342" width="176" height="14" rx="7" fill="#e4ecf3" />

  <text x="600" y="630" text-anchor="middle" font-family="Segoe UI, Arial, sans-serif" font-size="34" font-weight="600" fill="#6f8191">
    Portfolio Website Preview
  </text>
</svg>
